<?xml version="1.0" encoding="utf-8"?>
<!-- Svg Vector Icons : http://www.onlinewebfonts.com/icon -->
<!DOCTYPE svg PUBLIC "-//W3C//DTD SVG 1.1//EN" "http://www.w3.org/Graphics/SVG/1.1/DTD/svg11.dtd">
<svg version="1.1" xmlns="http://www.w3.org/2000/svg" xmlns:xlink="http://www.w3.org/1999/xlink" x="0px" y="0px" viewBox="0 0 256 256" enable-background="new 0 0 256 256" xml:space="preserve">
<metadata> Svg Vector Icons : http://www.onlinewebfonts.com/icon </metadata>
<g><g><g><path fill="#000000" d="M41.3,42.2C29.3,44,19.6,50.9,14,61.5c-4.3,8.1-4,4.7-4,66.2c0,61.1-0.2,57.8,3.8,66.2c4.2,8.9,13.3,16.3,23.2,19.2c3.5,1,8,1,90.7,1c71.2,0,87.6-0.1,90.1-0.8c10.4-2.5,20-10.2,24.3-19.4c4-8.5,3.8-5.2,3.8-66.2c0-51.8-0.1-55.4-1-58.9c-3.5-12.2-13.5-22.3-25.7-25.9c-3.2-1-8.4-1-89.3-1.1C82.8,41.8,42.9,41.9,41.3,42.2z M35.6,65.9c1,1.2,4.9,6,8.7,10.7c28.4,35.8,59.1,61.3,78.8,65.5c21.4,4.5,53.2-19.6,91.7-69.3c6.7-8.6,7.7-9.5,10.7-8.8c1.8,0.5,3.4,3.4,2.8,5.3C228,71,216.4,88.2,209.8,97c-6.5,8.8-14.4,18.3-20.8,25.2l-5.4,5.8l4.8,5.6c11.2,13,21.7,26.7,31.2,40.9c6.7,10,7.3,11.7,5,14.6c-1.4,1.8-4.3,2-6.1,0.5c-0.6-0.5-3.9-4.4-7.3-8.6c-12.5-15.6-34.3-39.5-37.9-41.5c-1.4-0.7-1.7-0.6-5.1,2.3c-7.8,6.5-19.3,13.1-28,16.3c-4.1,1.4-5.3,1.6-12.2,1.6c-6.9,0-8.1-0.2-12.2-1.6c-9-3.2-18.5-8.6-27.5-15.9c-2.9-2.3-4.5-3.2-5.2-3c-1.4,0.4-16.1,15.5-24.3,24.9c-3.5,4-9.5,11.1-13.3,15.9c-3.8,4.8-7.4,9.1-8.1,9.6c-1.8,1.5-4.7,1.3-6.1-0.5c-2.3-2.9-1.7-4.5,5.1-14.7c9.4-14,19.9-27.8,31.2-40.9l4.8-5.6l-3.1-3.2c-11.1-11.5-25.3-29.6-37.1-47.5c-4.9-7.4-5.3-8.6-4.1-11c1-1.9,1.6-2.3,4-2.3C33.4,63.8,34.3,64.3,35.6,65.9z"/></g></g></g>
</svg>